<svg xmlns="http://www.w3.org/2000/svg" width="14.718" height="14.718" viewBox="0 0 14.718 14.718"><defs><style>.a{fill:#6387ed;}.b,.c{stroke:none;}.c{fill:#fff;}</style></defs><g class="a" transform="translate(-3 -3)"><path class="b" d="M 10.3587646484375 17.21752548217773 C 9.644784927368164 17.21752548217773 9.06391429901123 16.63666534423828 9.06391429901123 15.92268466949463 L 9.06391429901123 11.65361499786377 L 4.794844627380371 11.65361499786377 C 4.080864429473877 11.65361499786377 3.500004529953003 11.07274436950684 3.500004529953003 10.3587646484375 C 3.500004529953003 9.644784927368164 4.080864429473877 9.06391429901123 4.794844627380371 9.06391429901123 L 9.06391429901123 9.06391429901123 L 9.06391429901123 4.794844627380371 C 9.06391429901123 4.080864429473877 9.644784927368164 3.500004529953003 10.3587646484375 3.500004529953003 C 11.07274436950684 3.500004529953003 11.65361499786377 4.080864429473877 11.65361499786377 4.794844627380371 L 11.65361499786377 9.06391429901123 L 15.92268466949463 9.06391429901123 C 16.63666534423828 9.06391429901123 17.21752548217773 9.644784927368164 17.21752548217773 10.3587646484375 C 17.21752548217773 11.07274436950684 16.63666534423828 11.65361499786377 15.92268466949463 11.65361499786377 L 11.65361499786377 11.65361499786377 L 11.65361499786377 15.92268466949463 C 11.65361499786377 16.63666534423828 11.07274436950684 17.21752548217773 10.3587646484375 17.21752548217773 Z"/><path class="c" d="M 10.3587646484375 4.000003814697266 C 9.919784545898438 4.000003814697266 9.56391429901123 4.355865478515625 9.56391429901123 4.794844627380371 L 9.56391429901123 9.56391429901123 L 4.794844627380371 9.56391429901123 C 4.355865478515625 9.56391429901123 4.000003814697266 9.919784545898438 4.000003814697266 10.3587646484375 C 4.000003814697266 10.79774475097656 4.355865478515625 11.15361499786377 4.794844627380371 11.15361499786377 L 9.56391429901123 11.15361499786377 L 9.56391429901123 15.92268466949463 C 9.56391429901123 16.36166381835938 9.919784545898438 16.71752548217773 10.3587646484375 16.71752548217773 C 10.79774475097656 16.71752548217773 11.15361499786377 16.36166381835938 11.15361499786377 15.92268466949463 L 11.15361499786377 11.15361499786377 L 15.92268466949463 11.15361499786377 C 16.36166381835938 11.15361499786377 16.71752548217773 10.79774475097656 16.71752548217773 10.3587646484375 C 16.71752548217773 9.919784545898438 16.36166381835938 9.56391429901123 15.92268466949463 9.56391429901123 L 11.15361499786377 9.56391429901123 L 11.15361499786377 4.794844627380371 C 11.15361499786377 4.355865478515625 10.79774475097656 4.000003814697266 10.3587646484375 4.000003814697266 M 10.3587646484375 3.000003814697266 C 11.34844493865967 3.000003814697266 12.15361499786377 3.805164337158203 12.15361499786377 4.794844627380371 L 12.15361499786377 8.56391429901123 L 15.92268466949463 8.56391429901123 C 16.9123649597168 8.56391429901123 17.71752548217773 9.369084358215332 17.71752548217773 10.3587646484375 C 17.71752548217773 11.34844493865967 16.9123649597168 12.15361499786377 15.92268466949463 12.15361499786377 L 12.15361499786377 12.15361499786377 L 12.15361499786377 15.92268466949463 C 12.15361499786377 16.9123649597168 11.34844493865967 17.71752548217773 10.3587646484375 17.71752548217773 C 9.369084358215332 17.71752548217773 8.56391429901123 16.9123649597168 8.56391429901123 15.92268466949463 L 8.56391429901123 12.15361499786377 L 4.794844627380371 12.15361499786377 C 3.805164337158203 12.15361499786377 3.000003814697266 11.34844493865967 3.000003814697266 10.3587646484375 C 3.000003814697266 9.369084358215332 3.805164337158203 8.56391429901123 4.794844627380371 8.56391429901123 L 8.56391429901123 8.56391429901123 L 8.56391429901123 4.794844627380371 C 8.56391429901123 3.805164337158203 9.369084358215332 3.000003814697266 10.3587646484375 3.000003814697266 Z"/></g></svg>