<svg xmlns="http://www.w3.org/2000/svg" width="48" height="48" viewBox="0 0 48 48"><defs><style>.a{fill:#e7edff;}.b{fill:#6387ed;}.c,.d{stroke:none;}.d{fill:#6387ed;}</style></defs><g transform="translate(-862 -434)"><rect class="a" width="48" height="48" rx="8" transform="translate(862 434)"/><g class="b" transform="translate(871.714 443.714)"><path class="c" d="M 14.28571319580078 25.0714225769043 C 13.30107307434082 25.0714225769043 12.50000286102295 24.27035331726074 12.50000286102295 23.28571319580078 L 12.50000286102295 16.07143402099609 L 5.285713195800781 16.07143402099609 C 4.30107307434082 16.07143402099609 3.500003099441528 15.27036285400391 3.500003099441528 14.28571319580078 C 3.500003099441528 13.30107307434082 4.30107307434082 12.50000286102295 5.285713195800781 12.50000286102295 L 12.50000286102295 12.50000286102295 L 12.50000286102295 5.285713195800781 C 12.50000286102295 4.30107307434082 13.30107307434082 3.500003099441528 14.28571319580078 3.500003099441528 C 15.27036285400391 3.500003099441528 16.07143402099609 4.30107307434082 16.07143402099609 5.285713195800781 L 16.07143402099609 12.50000286102295 L 23.28571319580078 12.50000286102295 C 24.27035331726074 12.50000286102295 25.0714225769043 13.30107307434082 25.0714225769043 14.28571319580078 C 25.0714225769043 15.27036285400391 24.27035331726074 16.07143402099609 23.28571319580078 16.07143402099609 L 16.07143402099609 16.07143402099609 L 16.07143402099609 23.28571319580078 C 16.07143402099609 24.27035331726074 15.27036285400391 25.0714225769043 14.28571319580078 25.0714225769043 Z"/><path class="d" d="M 14.28571319580078 4.000003814697266 C 13.57563304901123 4.000003814697266 13.00000286102295 4.575634002685547 13.00000286102295 5.285713195800781 L 13.00000286102295 13.00000286102295 L 5.285713195800781 13.00000286102295 C 4.575634002685547 13.00000286102295 4.000003814697266 13.57563304901123 4.000003814697266 14.28571319580078 C 4.000003814697266 14.99579334259033 4.575634002685547 15.57143306732178 5.285713195800781 15.57143306732178 L 13.00000286102295 15.57143306732178 L 13.00000286102295 23.28571319580078 C 13.00000286102295 23.99579238891602 13.57563304901123 24.5714225769043 14.28571319580078 24.5714225769043 C 14.99579334259033 24.5714225769043 15.57143306732178 23.99579238891602 15.57143306732178 23.28571319580078 L 15.57143306732178 15.57143306732178 L 23.28571319580078 15.57143306732178 C 23.99579238891602 15.57143306732178 24.5714225769043 14.99579334259033 24.5714225769043 14.28571319580078 C 24.5714225769043 13.57563304901123 23.99579238891602 13.00000286102295 23.28571319580078 13.00000286102295 L 15.57143306732178 13.00000286102295 L 15.57143306732178 5.285713195800781 C 15.57143306732178 4.575634002685547 14.99579334259033 4.000003814697266 14.28571319580078 4.000003814697266 M 14.28571319580078 3.000003814697266 C 15.54606342315674 3.000003814697266 16.57143402099609 4.025373458862305 16.57143402099609 5.285713195800781 L 16.57143402099609 12.00000381469727 L 23.28571319580078 12.00000381469727 C 24.54605293273926 12.00000381469727 25.5714225769043 13.0253734588623 25.5714225769043 14.28571319580078 C 25.5714225769043 15.54606342315674 24.54605293273926 16.57143402099609 23.28571319580078 16.57143402099609 L 16.57143402099609 16.57143402099609 L 16.57143402099609 23.28571319580078 C 16.57143402099609 24.54605293273926 15.54606342315674 25.5714225769043 14.28571319580078 25.5714225769043 C 13.0253734588623 25.5714225769043 12.00000381469727 24.54605293273926 12.00000381469727 23.28571319580078 L 12.00000381469727 16.57143402099609 L 5.285713195800781 16.57143402099609 C 4.025373458862305 16.57143402099609 3.000003814697266 15.54606342315674 3.000003814697266 14.28571319580078 C 3.000003814697266 13.0253734588623 4.025373458862305 12.00000381469727 5.285713195800781 12.00000381469727 L 12.00000381469727 12.00000381469727 L 12.00000381469727 5.285713195800781 C 12.00000381469727 4.025373458862305 13.0253734588623 3.000003814697266 14.28571319580078 3.000003814697266 Z"/></g></g></svg>