<svg xmlns="http://www.w3.org/2000/svg" width="56" height="56" viewBox="0 0 56 56"><defs><style>.a{fill:#e7edff;}.b{fill:#6387ed;}.c,.d{stroke:none;}.d{fill:#6387ed;}</style></defs><g transform="translate(-862 -434)"><rect class="a" width="56" height="56" rx="8" transform="translate(862 434)"/><g class="b" transform="translate(874 446)"><path class="c" d="M 15.99999904632568 28.5 C 14.89719867706299 28.5 13.99999904632568 27.60279846191406 13.99999904632568 26.5 L 13.99999904632568 18 L 5.499999046325684 18 C 4.397199153900146 18 3.499999046325684 17.10279846191406 3.499999046325684 15.99999904632568 C 3.499999046325684 14.89719867706299 4.397199153900146 13.99999904632568 5.499999046325684 13.99999904632568 L 13.99999904632568 13.99999904632568 L 13.99999904632568 5.499999046325684 C 13.99999904632568 4.397199153900146 14.89719867706299 3.499999046325684 15.99999904632568 3.499999046325684 C 17.10279846191406 3.499999046325684 18 4.397199153900146 18 5.499999046325684 L 18 13.99999904632568 L 26.5 13.99999904632568 C 27.60279846191406 13.99999904632568 28.5 14.89719867706299 28.5 15.99999904632568 C 28.5 17.10279846191406 27.60279846191406 18 26.5 18 L 18 18 L 18 26.5 C 18 27.60279846191406 17.10279846191406 28.5 15.99999904632568 28.5 Z"/><path class="d" d="M 15.99999904632568 3.999998092651367 C 15.17156982421875 3.999998092651367 14.49999809265137 4.67156982421875 14.49999809265137 5.499998092651367 L 14.49999809265137 14.49999809265137 L 5.499998092651367 14.49999809265137 C 4.67156982421875 14.49999809265137 3.999998092651367 15.17156982421875 3.999998092651367 15.99999904632568 C 3.999998092651367 16.82843017578125 4.67156982421875 17.5 5.499998092651367 17.5 L 14.49999809265137 17.5 L 14.49999809265137 26.5 C 14.49999809265137 27.32841873168945 15.17156982421875 28 15.99999904632568 28 C 16.82843017578125 28 17.5 27.32841873168945 17.5 26.5 L 17.5 17.5 L 26.5 17.5 C 27.32841873168945 17.5 28 16.82843017578125 28 15.99999904632568 C 28 15.17156982421875 27.32841873168945 14.49999809265137 26.5 14.49999809265137 L 17.5 14.49999809265137 L 17.5 5.499998092651367 C 17.5 4.67156982421875 16.82843017578125 3.999998092651367 15.99999904632568 3.999998092651367 M 15.99999904632568 2.999998092651367 C 17.37849807739258 2.999998092651367 18.5 4.121498107910156 18.5 5.499998092651367 L 18.5 13.49999809265137 L 26.5 13.49999809265137 C 27.87849807739258 13.49999809265137 29 14.62149810791016 29 15.99999904632568 C 29 17.37849807739258 27.87849807739258 18.5 26.5 18.5 L 18.5 18.5 L 18.5 26.5 C 18.5 27.87849807739258 17.37849807739258 29 15.99999904632568 29 C 14.62149810791016 29 13.49999809265137 27.87849807739258 13.49999809265137 26.5 L 13.49999809265137 18.5 L 5.499998092651367 18.5 C 4.121498107910156 18.5 2.999998092651367 17.37849807739258 2.999998092651367 15.99999904632568 C 2.999998092651367 14.62149810791016 4.121498107910156 13.49999809265137 5.499998092651367 13.49999809265137 L 13.49999809265137 13.49999809265137 L 13.49999809265137 5.499998092651367 C 13.49999809265137 4.121498107910156 14.62149810791016 2.999998092651367 15.99999904632568 2.999998092651367 Z"/></g></g></svg>