<svg xmlns="http://www.w3.org/2000/svg" width="24" height="24" viewBox="0 0 24 24"><defs><style>.a{fill:#fff;stroke:#707070;opacity:0;}.b{fill:#d02129;stroke:#fff;stroke-width:0.3px;}.c{stroke:none;}.d{fill:none;}</style></defs><g transform="translate(-428 -7208)"><g class="a" transform="translate(428 7208)"><rect class="c" width="24" height="24"/><rect class="d" x="0.5" y="0.5" width="23" height="23"/></g><path class="b" d="M8.6,14.8a.8.8,0,0,0,.8-.8V9.2a.8.8,0,1,0-1.6,0V14A.8.8,0,0,0,8.6,14.8Zm8-9.6H13.4V4.4A2.4,2.4,0,0,0,11,2H9.4A2.4,2.4,0,0,0,7,4.4v.8H3.8a.8.8,0,1,0,0,1.6h.8v8.8A2.4,2.4,0,0,0,7,18h6.4a2.4,2.4,0,0,0,2.4-2.4V6.8h.8a.8.8,0,1,0,0-1.6Zm-8-.8a.8.8,0,0,1,.8-.8H11a.8.8,0,0,1,.8.8v.8H8.6Zm5.6,11.2a.8.8,0,0,1-.8.8H7a.8.8,0,0,1-.8-.8V6.8h8Zm-2.4-.8a.8.8,0,0,0,.8-.8V9.2a.8.8,0,0,0-1.6,0V14A.8.8,0,0,0,11.8,14.8Z" transform="translate(429.5 7210.5)"/></g></svg>