<svg xmlns="http://www.w3.org/2000/svg" width="19.827" height="16" viewBox="0 0 19.827 16"><defs><style>.a{fill:#e21717;}</style></defs><path class="a" d="M22.138,27.05l-.31.388a.5.5,0,0,1-.7.077L2.6,13.022a.494.494,0,0,1-.077-.7l.31-.388a.5.5,0,0,1,.7-.077l18.527,14.5a.5.5,0,0,1,.077.692Zm-8.989-3.89,1.9,1.488H6.387a.992.992,0,0,1-1-1,.971.971,0,0,1,.273-.665,5.624,5.624,0,0,0,1.7-4.351l1.409,1.1A6.812,6.812,0,0,1,7.487,23.16Zm-2.767-7.825-1.175-.927A5.064,5.064,0,0,1,11.348,13.4v-.646a.992.992,0,1,1,1.982,0V13.4A4.893,4.893,0,0,1,17.289,18.2a8.089,8.089,0,0,0,.444,2.876l-1.844-1.442a12.177,12.177,0,0,1-.088-1.417V18.2a3.467,3.467,0,0,0-5.418-2.869Zm-.031,10.3h3.959a1.982,1.982,0,1,1-3.959,0Z" transform="translate(-2.416 -11.712)"/></svg>