<svg id="Group_8" data-name="Group 8" xmlns="http://www.w3.org/2000/svg" width="209.916" height="45.95" viewBox="0 0 209.916 45.95">
  <path id="Path_1" data-name="Path 1" d="M686.378,55.546c-.645-.069-1.29-.136-1.934-.207a41.026,41.026,0,0,1-9.859-2.255.755.755,0,0,1-.571-.85q.02-20.932.011-41.864V9.749h6.443V24.124c.388-.138.692-.244.994-.354a25.141,25.141,0,0,1,9.8-1.6A11.975,11.975,0,0,1,702.5,30.276a20.748,20.748,0,0,1,1.246,7.105,30.394,30.394,0,0,1-.971,8.739c-1.421,5.084-4.785,8.026-9.918,9.012-.784.151-1.586.209-2.378.316a2.893,2.893,0,0,0-.366.1Zm-5.9-16.674c0,3.3.009,6.61-.011,9.915a.648.648,0,0,0,.52.724,22.389,22.389,0,0,0,6.014,1.3,13.148,13.148,0,0,0,4.338-.279,6.86,6.86,0,0,0,5.052-5.173,26.524,26.524,0,0,0,.53-11.61,8.581,8.581,0,0,0-1.949-4.43,7.912,7.912,0,0,0-6.16-2.52,21.137,21.137,0,0,0-7.856,1.455.629.629,0,0,0-.489.7C680.489,32.263,680.48,35.568,680.48,38.873Z" transform="translate(-608.616 -9.596)" fill="#d02129"/>
  <path id="Path_2" data-name="Path 2" d="M1798.272,55.578c-.645-.069-1.29-.136-1.934-.206a40.912,40.912,0,0,1-9.858-2.252.759.759,0,0,1-.583-.846q.022-20.956.012-41.912V9.784h6.436V24.152c.444-.155.807-.278,1.168-.408a24.721,24.721,0,0,1,9.613-1.546,11.988,11.988,0,0,1,11.318,8.276,22.9,22.9,0,0,1,1.178,8.737,26.972,26.972,0,0,1-1.195,7.671,11.672,11.672,0,0,1-9.195,8.175c-.953.21-1.936.285-2.9.427-.142.021-.282.063-.421.095Zm-5.908-16.694q0,5.007,0,10.014c0,.285.03.475.352.591a21.492,21.492,0,0,0,8.605,1.376,7.151,7.151,0,0,0,7.065-5.827,27.225,27.225,0,0,0,.47-11.043,8.96,8.96,0,0,0-1.824-4.439,7.833,7.833,0,0,0-6.314-2.722,20.96,20.96,0,0,0-7.9,1.468.593.593,0,0,0-.457.666C1792.37,32.274,1792.364,35.579,1792.364,38.884Z" transform="translate(-1611.329 -9.628)" fill="#d02129"/>
  <path id="Path_3" data-name="Path 3" d="M7.946,36.193c.211.013.422.038.633.038,4.76,0,9.519-.019,14.279.011a22.732,22.732,0,0,1,6.672.929,9.062,9.062,0,0,1,6.69,8.139,19.8,19.8,0,0,1-.241,6.337,9.472,9.472,0,0,1-6.67,7.3,19.206,19.206,0,0,1-6.167.979c-2.7.028-5.4.007-8.1.007h-.633V78.608H7.946Zm6.483,19.043c.133.01.213.02.293.02,2.487,0,4.975.038,7.46-.02a15.851,15.851,0,0,0,3.1-.4,5.147,5.147,0,0,0,4.236-3.82,12.4,12.4,0,0,0,.2-5.442,4.777,4.777,0,0,0-3.771-4.108,20.246,20.246,0,0,0-3.916-.545c-2.353-.086-4.711-.025-7.067-.023-.173,0-.347.014-.538.023Z" transform="translate(-7.946 -33.443)" fill="#d02129"/>
  <path id="Path_4" data-name="Path 4" d="M346.982,176.171c-.789-.1-1.581-.188-2.367-.311a14.054,14.054,0,0,1-5.285-1.841,8.512,8.512,0,0,1-4.109-6.78c-.083-.828-.1-1.665-.1-2.5q-.011-10.308,0-20.617v-.609h6.456v.638q0,9.253.005,18.506a15.42,15.42,0,0,0,.593,4.554,5.531,5.531,0,0,0,4.953,4.137,23.392,23.392,0,0,0,9.073-.819.648.648,0,0,0,.552-.754q-.019-12.812-.009-25.623v-.647H363.2v.637q0,14.579.01,29.158a.679.679,0,0,1-.6.8,59.362,59.362,0,0,1-11.522,1.985,2.462,2.462,0,0,0-.373.084Z" transform="translate(-302.995 -130.222)" fill="#d02129"/>
  <path id="Path_5" data-name="Path 5" d="M1458.982,176.2c-.789-.1-1.581-.19-2.367-.31a14.1,14.1,0,0,1-5.2-1.785,8.5,8.5,0,0,1-4.191-6.779,22.4,22.4,0,0,1-.1-2.3q-.011-10.432,0-20.863v-.615h6.456v.627q0,9.425.005,18.851a14.023,14.023,0,0,0,.631,4.349,5.519,5.519,0,0,0,4.947,4.011,24,24,0,0,0,8.888-.771.814.814,0,0,0,.711-.945q-.031-12.739-.015-25.478v-.651h6.423c.011.183.03.356.03.529q0,14.678.011,29.356a.578.578,0,0,1-.5.675,58.822,58.822,0,0,1-11.568,2.012,2.976,2.976,0,0,0-.422.089Z" transform="translate(-1305.815 -130.25)" fill="#d02129"/>
  <path id="Path_6" data-name="Path 6" d="M2068.762,12.906c-.113.337-.205.683-.345,1.009a4.214,4.214,0,0,1-8.058-1.618,4.11,4.11,0,0,1,3.23-3.986c.123-.028.241-.078.362-.118h1.276a.486.486,0,0,0,.126.073,4.046,4.046,0,0,1,3.345,3.295c.006.027.042.046.064.069Zm-1.04-.6a3.167,3.167,0,1,0-3.141,3.255A3.144,3.144,0,0,0,2067.722,12.309Z" transform="translate(-1858.846 -8.193)" fill="#d02129"/>
  <path id="Path_7" data-name="Path 7" d="M1064.193,78.9H1058.2c-1.129,0-2.258-.016-3.387.009a.713.713,0,0,1-.76-.439q-3.929-7.623-7.885-15.233-5.393-10.4-10.791-20.793a.763.763,0,0,0-.3-.332V78.871h-5.647V36.563c.151-.009.308-.027.465-.027,2.945,0,5.89,0,8.835-.008a.649.649,0,0,1,.676.411q9.388,18.1,18.8,36.183a.819.819,0,0,0,.307.351v-36.9h5.687Z" transform="translate(-929.133 -33.745)" fill="#d02129"/>
  <path id="Path_8" data-name="Path 8" d="M2087.124,33.148c0-1.284-.007-2.524.012-3.763a.41.41,0,0,1,.269-.3,14.151,14.151,0,0,1,1.9-.035,1.111,1.111,0,0,1,1.168.921c.1.5-.084.788-.777,1.2.754.438.633,1.267.917,1.921-.822.243-.972.162-1.173-.615-.225-.864-.387-.97-1.394-.847v1.516Zm.964-2.255c.518.036,1.015.117,1.318-.353a.616.616,0,0,0-.053-.574,1.11,1.11,0,0,0-1.265-.209Z" transform="translate(-1882.982 -26.985)" fill="#d02129"/>
</svg>
