<svg xmlns="http://www.w3.org/2000/svg" width="24" height="26.667" viewBox="0 0 24 26.667"><defs><style>.a{fill:#c2c2c2;}</style></defs><path class="a" d="M12.333,23.333A1.333,1.333,0,0,0,13.667,22V14A1.333,1.333,0,1,0,11,14v8A1.333,1.333,0,0,0,12.333,23.333Zm13.333-16H20.333V6a4,4,0,0,0-4-4H13.667a4,4,0,0,0-4,4V7.333H4.333a1.333,1.333,0,1,0,0,2.667H5.667V24.667a4,4,0,0,0,4,4H20.333a4,4,0,0,0,4-4V10h1.333a1.333,1.333,0,1,0,0-2.667ZM12.333,6a1.333,1.333,0,0,1,1.333-1.333h2.667A1.333,1.333,0,0,1,17.667,6V7.333H12.333Zm9.333,18.667A1.333,1.333,0,0,1,20.333,26H9.667a1.333,1.333,0,0,1-1.333-1.333V10H21.667Zm-4-1.333A1.333,1.333,0,0,0,19,22V14a1.333,1.333,0,1,0-2.667,0v8A1.333,1.333,0,0,0,17.667,23.333Z" transform="translate(-3 -2)"/></svg>