<svg xmlns="http://www.w3.org/2000/svg" width="16" height="16.001" viewBox="0 0 16 16.001"><defs><style>.a{fill:#c2c2c2;}</style></defs><path class="a" d="M12.968,7.032a.8.8,0,0,0-1.136,0L10,8.872,8.168,7.032A.8.8,0,0,0,7.032,8.168L8.872,10l-1.84,1.832a.8.8,0,1,0,1.136,1.136L10,11.128l1.832,1.84a.8.8,0,1,0,1.136-1.136L11.128,10l1.84-1.832a.8.8,0,0,0,0-1.136Zm2.688-2.688a8,8,0,1,0,0,11.314,8,8,0,0,0,0-11.314ZM14.528,14.528A6.4,6.4,0,1,1,16.4,10,6.4,6.4,0,0,1,14.528,14.528Z" transform="translate(-2 -2)"/></svg>