<svg xmlns="http://www.w3.org/2000/svg" width="24" height="24" viewBox="0 0 24 24"><defs><style>.a,.b{fill:#6387ed;}.a{stroke:#707070;opacity:0;}.b{stroke:#c2c2c2;stroke-width:0.2px;}.c{stroke:none;}.d{fill:none;}</style></defs><g transform="translate(-428 -7208)"><g class="a" transform="translate(428 7208)"><rect class="c" width="24" height="24"/><rect class="d" x="0.5" y="0.5" width="23" height="23"/></g><path class="b" d="M5.2,10.979l2.787,2.787a.7.7,0,0,0,.495.2.585.585,0,0,0,.265-.056.7.7,0,0,0,.432-.641V11.182h3.484a4.878,4.878,0,0,1,4.878,4.878v.7a.7.7,0,1,0,1.394,0v-.7a6.272,6.272,0,0,0-6.272-6.272H9.179V7.7A.7.7,0,0,0,7.988,7.2L5.2,9.99a.7.7,0,0,0,0,.99Z" transform="translate(427.006 7207.998)"/></g></svg>