<svg xmlns="http://www.w3.org/2000/svg" width="28.2" height="28.2" viewBox="0 0 28.2 28.2"><defs><style>.a{fill:#c2c2c2;stroke:#c2c2c2;stroke-width:0.2px;}</style></defs><g transform="translate(0.1 0.1)"><path class="a" d="M15.565,956.362a.993.993,0,0,0-.9.77l-.514,3.319c-.147.058-.294.117-.438.181l-2.7-1.988a.944.944,0,0,0-1.189.095l-3.443,3.443a.944.944,0,0,0-.086,1.179l1.988,2.7c-.066.147-.131.3-.19.447l-3.319.514a.944.944,0,0,0-.77.9v4.87a.943.943,0,0,0,.77.894l3.319.514c.06.152.124.3.19.447l-1.988,2.7a.944.944,0,0,0,.086,1.179l3.443,3.443a.944.944,0,0,0,1.189.1l2.7-1.988c.143.064.29.123.438.181l.514,3.319a.944.944,0,0,0,.9.78h4.87a.944.944,0,0,0,.9-.78l.514-3.319c.147-.058.294-.117.438-.181l2.7,1.988a.944.944,0,0,0,1.189-.1l3.443-3.443a.944.944,0,0,0,.086-1.179l-1.988-2.7c.066-.147.131-.3.19-.447l3.319-.514A.943.943,0,0,0,32,972.8v-4.87a.945.945,0,0,0-.77-.9l-3.319-.514c-.06-.151-.124-.3-.19-.447l1.988-2.7a.944.944,0,0,0-.086-1.179l-3.443-3.443a.944.944,0,0,0-1.189-.095l-2.7,1.988c-.143-.064-.29-.123-.438-.181l-.514-3.319a.944.944,0,0,0-.9-.77Zm.78,1.826h3.31l.466,3.043a.934.934,0,0,0,.618.732,8.728,8.728,0,0,1,1.255.523.933.933,0,0,0,.961-.076l2.492-1.826,2.33,2.33-1.826,2.492a.934.934,0,0,0-.086.951,8.753,8.753,0,0,1,.533,1.255.933.933,0,0,0,.723.618l3.053.476v3.3l-3.053.476a.933.933,0,0,0-.723.618,8.757,8.757,0,0,1-.533,1.255.934.934,0,0,0,.086.951l1.826,2.492-2.33,2.33L22.955,978.3a.933.933,0,0,0-.961-.076,8.715,8.715,0,0,1-1.255.523.934.934,0,0,0-.618.732l-.476,3.053H16.355l-.476-3.053a.934.934,0,0,0-.618-.732,8.712,8.712,0,0,1-1.255-.523.933.933,0,0,0-.961.076l-2.492,1.826-2.33-2.33,1.826-2.492a.934.934,0,0,0,.086-.951A8.761,8.761,0,0,1,9.6,973.1a.933.933,0,0,0-.723-.618l-3.053-.476v-3.3l3.053-.476a.933.933,0,0,0,.723-.618,8.757,8.757,0,0,1,.533-1.255.934.934,0,0,0-.086-.951l-1.826-2.492,2.33-2.33,2.492,1.826a.933.933,0,0,0,.961.076,8.725,8.725,0,0,1,1.255-.523.934.934,0,0,0,.618-.732ZM18,963.666a6.7,6.7,0,1,0,6.7,6.7,6.71,6.71,0,0,0-6.7-6.7Zm0,1.826a4.87,4.87,0,1,1-4.87,4.87A4.856,4.856,0,0,1,18,965.492Z" transform="translate(-4 -956.362)"/></g></svg>