<svg xmlns="http://www.w3.org/2000/svg" width="54" height="53" viewBox="0 0 54 53"><defs><style>.a{fill:none;}.b{fill:#c2c2c2;stroke:#f5f7ff;stroke-width:0.3px;}</style></defs><g transform="translate(0 0)"><rect class="a" width="54" height="53" transform="translate(0 0)"/><path class="b" d="M12.242,2A10.242,10.242,0,1,0,22.484,12.242,10.242,10.242,0,0,0,12.242,2Zm0,18.436a8.194,8.194,0,0,1-8.194-8.194A8.112,8.112,0,0,1,5.779,7.224L17.261,18.705A8.112,8.112,0,0,1,12.242,20.436Zm6.463-3.175L7.224,5.779a8.112,8.112,0,0,1,5.019-1.731,8.194,8.194,0,0,1,8.194,8.194A8.112,8.112,0,0,1,18.705,17.261Z" transform="translate(15 14)"/></g></svg>