<svg xmlns="http://www.w3.org/2000/svg" width="53" height="53" viewBox="0 0 53 53"><defs><style>.a{fill:none;}.b{fill:#e91e63;stroke:#f5f7ff;stroke-width:0.9px;}</style></defs><g transform="translate(0 0)"><rect class="a" width="53" height="53" transform="translate(0 0)"/><path class="b" d="M10.974,20.226a1.139,1.139,0,0,0,1.139-1.139V12.252a1.139,1.139,0,1,0-2.278,0v6.835A1.139,1.139,0,0,0,10.974,20.226ZM22.365,6.557H17.809V5.417A3.417,3.417,0,0,0,14.391,2H12.113A3.417,3.417,0,0,0,8.7,5.417V6.557H4.139a1.139,1.139,0,1,0,0,2.278H5.278V21.365A3.417,3.417,0,0,0,8.7,24.783h9.113a3.417,3.417,0,0,0,3.417-3.417V8.835h1.139a1.139,1.139,0,1,0,0-2.278ZM10.974,5.417a1.139,1.139,0,0,1,1.139-1.139h2.278a1.139,1.139,0,0,1,1.139,1.139V6.557H10.974Zm7.974,15.948A1.139,1.139,0,0,1,17.809,22.5H8.7a1.139,1.139,0,0,1-1.139-1.139V8.835H18.948Zm-3.417-1.139a1.139,1.139,0,0,0,1.139-1.139V12.252a1.139,1.139,0,1,0-2.278,0v6.835A1.139,1.139,0,0,0,15.531,20.226Z" transform="translate(13.195 13.183)"/></g></svg>