<svg xmlns="http://www.w3.org/2000/svg" width="54" height="53" viewBox="0 0 54 53"><defs><style>.a{fill:none;}.b{fill:#c2c2c2;stroke:#f5f7ff;stroke-width:0.5px;}</style></defs><g transform="translate(0 0)"><rect class="a" width="54" height="53" transform="translate(0 0)"/><path class="b" d="M5.15,18.8H9.6a1.05,1.05,0,0,0,.746-.3l7.266-7.276h0L20.6,8.3a1.05,1.05,0,0,0,0-1.491L16.144,2.3a1.05,1.05,0,0,0-1.491,0L11.691,5.276h0L4.4,12.553a1.05,1.05,0,0,0-.3.746V17.75A1.05,1.05,0,0,0,5.15,18.8ZM15.4,4.531,18.37,7.5,16.879,8.993,13.907,6.022Zm-9.2,9.2L12.427,7.5,15.4,10.474,9.171,16.7H6.2ZM21.95,20.9H3.05a1.05,1.05,0,1,0,0,2.1h18.9a1.05,1.05,0,1,0,0-2.1Z" transform="translate(14.557 13.742)"/></g></svg>