<svg xmlns="http://www.w3.org/2000/svg" width="19.2" height="19.2" viewBox="0 0 19.2 19.2"><defs><style>.a{fill:#6387ed;}</style></defs><path class="a" d="M18.32,2H4.88A2.88,2.88,0,0,0,2,4.88V6a2.88,2.88,0,0,0,.24,1.152v.058a2.7,2.7,0,0,0,.566.826L8.72,13.914V20.24a.955.955,0,0,0,1.392.854l3.84-1.92a.96.96,0,0,0,.528-.854V13.914l5.875-5.875a2.7,2.7,0,0,0,.566-.826V7.155A2.88,2.88,0,0,0,21.2,6V4.88A2.88,2.88,0,0,0,18.32,2ZM12.838,12.838a.96.96,0,0,0-.278.682v4.2l-1.92.96V13.52a.96.96,0,0,0-.278-.682L5.274,7.76H17.926Zm6.442-7H3.92V4.88a.96.96,0,0,1,.96-.96H18.32a.96.96,0,0,1,.96.96Z" transform="translate(-2 -2)"/></svg>