<svg xmlns="http://www.w3.org/2000/svg" width="18" height="18" viewBox="0 0 18 18"><defs><style>.a{fill:#ffedd8;}.b{fill:#feb969;stroke:#feb969;stroke-width:0.2px;}</style></defs><g transform="translate(-862.336 -434.336)"><rect class="a" width="18" height="18" rx="3" transform="translate(862.336 434.336)"/><g transform="translate(867.238 438.119)"><path class="b" d="M13.17,8.2l-.779-1.93.775-1.889a.373.373,0,0,0-.343-.514H9.471V3.118A.373.373,0,0,0,9.1,2.745H5.745V2.373a.373.373,0,1,0-.745,0v9.687a.373.373,0,0,0,.745,0V7.588H7.981A1.116,1.116,0,0,0,9.1,8.706h3.726a.375.375,0,0,0,.346-.51ZM5.745,6.843V3.49H8.726V6.843ZM9.1,7.961a.374.374,0,0,1-.373-.373H9.1a.373.373,0,0,0,.373-.373V4.608h2.8l-.622,1.513a.391.391,0,0,0,0,.283l.63,1.557Z" transform="translate(-5 -2)"/></g></g></svg>