<svg xmlns="http://www.w3.org/2000/svg" width="54" height="53" viewBox="0 0 54 53"><defs><style>.a{fill:none;}.b{fill:#c2c2c2;}</style></defs><g transform="translate(0 0)"><rect class="a" width="54" height="53" transform="translate(0 0)"/><g transform="translate(14 14)"><path class="b" d="M21.1,14.213l-1.535-3.8L21.1,6.685a.734.734,0,0,0-.676-1.013H13.813V4.2a.734.734,0,0,0-.734-.734H6.469V2.734A.734.734,0,1,0,5,2.734V21.828a.734.734,0,0,0,1.469,0V13.016h4.406a2.2,2.2,0,0,0,2.2,2.2h7.344a.739.739,0,0,0,.683-1.006ZM6.469,11.547V4.938h5.875v6.609Zm6.609,2.2a.737.737,0,0,1-.734-.734h.734a.734.734,0,0,0,.734-.734V7.141h5.515L18.1,10.122a.77.77,0,0,0-.007.558l1.241,3.07Z" transform="translate(0)"/></g></g></svg>