<svg xmlns="http://www.w3.org/2000/svg" width="24" height="24" viewBox="0 0 24 24"><defs><style>.a{opacity:0.33;}.b{fill:#fff;}</style></defs><g transform="translate(-594 -773)"><rect class="a" width="24" height="24" rx="7" transform="translate(594 773)"/><g transform="translate(598 777)"><path class="b" d="M10,2a8,8,0,1,0,8,8,8,8,0,0,0-8-8Zm0,14.4A6.4,6.4,0,1,1,16.4,10,6.4,6.4,0,0,1,10,16.4Zm0-6.8a.8.8,0,0,0-.8.8v2.4a.8.8,0,0,0,1.6,0V10.4A.8.8,0,0,0,10,9.6Zm0-3.2a1,1,0,1,0,1,1A1,1,0,0,0,10,6.4Z" transform="translate(-2 -2)"/></g></g></svg>