<svg xmlns="http://www.w3.org/2000/svg" width="15.896" height="15.91" viewBox="0 0 15.896 15.91"><defs><style>.a{fill:#fff;stroke:#fff;stroke-width:0.5px;}</style></defs><path class="a" d="M8.072,13.742l-1.336,1.3A1.869,1.869,0,0,1,4.093,12.4L7.521,8.962a1.857,1.857,0,0,1,2.56-.068l.091.076a.755.755,0,0,0,1.057-1.08,2.077,2.077,0,0,0-.136-.159,3.367,3.367,0,0,0-4.6.166L3.021,11.333A3.382,3.382,0,0,0,7.8,16.112l1.306-1.276a.755.755,0,0,0-1.034-1.095ZM16.143,2.99a3.39,3.39,0,0,0-4.779,0L10.057,4.266a.755.755,0,0,0,1.034,1.095l1.306-1.3A1.869,1.869,0,1,1,15.041,6.7L11.613,10.14a1.857,1.857,0,0,1-2.56.068l-.091-.076a.755.755,0,1,0-1.057,1.08,2.076,2.076,0,0,0,.174.159,3.375,3.375,0,0,0,4.6-.166L16.113,7.77a3.39,3.39,0,0,0,.03-4.779Z" transform="translate(-1.685 -1.538)"/></svg>