<svg xmlns="http://www.w3.org/2000/svg" width="48" height="48" viewBox="0 0 48 48"><defs><style>.a{fill:#f0f1f3;}.b{fill:#969696;}</style></defs><g transform="translate(-862 -434)"><rect class="a" width="48" height="48" rx="8" transform="translate(862 434)"/><path class="b" d="M27.789,31.446l-.4.5a.641.641,0,0,1-.9.1L2.656,13.4a.635.635,0,0,1-.1-.9l.4-.5a.638.638,0,0,1,.9-.1L27.69,30.556a.641.641,0,0,1,.1.89ZM16.224,26.44l2.448,1.914H7.524A1.276,1.276,0,0,1,6.243,27.07a1.249,1.249,0,0,1,.351-.855c.732-.788,2.056-1.981,2.185-5.6l1.812,1.416A8.764,8.764,0,0,1,8.94,26.44Zm-3.56-10.067-1.512-1.193a6.515,6.515,0,0,1,2.756-1.3v-.831a1.276,1.276,0,1,1,2.55,0v.831a6.3,6.3,0,0,1,5.094,6.185,10.407,10.407,0,0,0,.571,3.7l-2.373-1.855a15.666,15.666,0,0,1-.113-1.823V20.06a4.461,4.461,0,0,0-6.97-3.692Zm-.04,13.257h5.094a2.55,2.55,0,1,1-5.094,0Z" transform="translate(870.584 436.287)"/></g></svg>