<svg xmlns="http://www.w3.org/2000/svg" width="22" height="22" viewBox="0 0 22 22"><defs><style>.a{fill:#ed8963;}</style></defs><g transform="translate(-1 -1)"><path class="a" d="M18,23H4a3,3,0,0,1-3-3V6A3,3,0,0,1,4,3h8a1,1,0,0,1,0,2H4A1,1,0,0,0,3,6V20a1,1,0,0,0,1,1H18a1,1,0,0,0,1-1V12a1,1,0,0,1,2,0v8A3,3,0,0,1,18,23Z"/><path class="a" d="M22,1H16a1,1,0,0,0-.707,1.707L17.586,5l-7.293,7.293a1,1,0,1,0,1.414,1.414L19,6.414l2.293,2.293A1,1,0,0,0,22,9a.987.987,0,0,0,.383-.076A1,1,0,0,0,23,8V2a1,1,0,0,0-1-1Z"/></g></svg>