<svg xmlns="http://www.w3.org/2000/svg" width="21.999" height="22" viewBox="0 0 21.999 22"><defs><style>.a{fill:#e21717;}</style></defs><path class="a" d="M17.081,8.919a1.1,1.1,0,0,0-1.562,0L13,11.449l-2.519-2.53a1.1,1.1,0,0,0-1.562,1.562L11.449,13l-2.53,2.519a1.1,1.1,0,1,0,1.562,1.562L13,14.551l2.519,2.53a1.1,1.1,0,1,0,1.562-1.562L14.551,13l2.53-2.519a1.1,1.1,0,0,0,0-1.562Zm3.7-3.7a11,11,0,1,0,0,15.556,11,11,0,0,0,0-15.556Zm-1.551,14A8.8,8.8,0,1,1,21.8,13,8.8,8.8,0,0,1,19.226,19.226Z" transform="translate(-2 -2)"/></svg>