<svg xmlns="http://www.w3.org/2000/svg" width="53" height="53" viewBox="0 0 53 53"><defs><style>.a{fill:none;}.b{fill:#c2c2c2;stroke:#f5f7ff;stroke-width:0.9px;}</style></defs><g transform="translate(0 0)"><rect class="a" width="53" height="53" transform="translate(0 0)"/><path class="b" d="M28.609,14.151C25.91,7.887,20.835,4,15.358,4S4.806,7.887,2.108,14.151a1.336,1.336,0,0,0,0,1.069c2.7,6.265,7.774,10.151,13.25,10.151S25.91,21.485,28.609,15.22A1.336,1.336,0,0,0,28.609,14.151ZM15.358,22.7c-4.234,0-8.241-3.059-10.552-8.014C7.117,9.73,11.124,6.671,15.358,6.671S23.6,9.73,25.91,14.686C23.6,19.641,19.593,22.7,15.358,22.7Zm0-13.357A5.343,5.343,0,1,0,20.7,14.686,5.343,5.343,0,0,0,15.358,9.343Zm0,8.014a2.671,2.671,0,1,1,2.671-2.671A2.671,2.671,0,0,1,15.358,17.357Z" transform="translate(11.194 11.889)"/></g></svg>