<svg id="Word_list" data-name="Word list" xmlns="http://www.w3.org/2000/svg" width="24.512" height="27.454" viewBox="0 0 24.512 27.454">
  <path id="Path_508" data-name="Path 508" d="M32.169,7.177,28.737,4.235A.98.98,0,0,0,28.1,4H13.883a.98.98,0,0,0-.98.98V7.922H8.98A.98.98,0,0,0,8,8.9V30.473a.98.98,0,0,0,.98.98H27.61a.98.98,0,0,0,.98-.98V28.512h2.941a.98.98,0,0,0,.98-.98V7.922a.981.981,0,0,0-.343-.745Zm-6.03,22.316H10.451a.49.49,0,0,1-.49-.49V10.373a.49.49,0,0,1,.49-.49H23.634a.49.49,0,0,1,.319.118l2.505,2.147a.49.49,0,0,1,.172.373V29A.49.49,0,0,1,26.139,29.493Zm3.922-2.941H28.59V11.844a.981.981,0,0,0-.343-.745L24.815,8.157a.98.98,0,0,0-.637-.235H14.863V6.451a.49.49,0,0,1,.49-.49h12.2a.49.49,0,0,1,.319.118L30.38,8.226a.49.49,0,0,1,.172.373V26.061A.49.49,0,0,1,30.061,26.551Z" transform="translate(-8 -4)" fill="#c2c2c2"/>
  <rect id="Rectangle_3122" data-name="Rectangle 3122" width="10.714" height="1.786" rx="0.893" transform="translate(5.057 10.576)" fill="#c2c2c2"/>
  <rect id="Rectangle_3123" data-name="Rectangle 3123" width="10.714" height="1.786" rx="0.893" transform="translate(5.057 15.04)" fill="#c2c2c2"/>
  <rect id="Rectangle_3124" data-name="Rectangle 3124" width="10.714" height="1.786" rx="0.893" transform="translate(5.057 18.611)" fill="#c2c2c2"/>
</svg>
